
<svg data-logo="logo" xmlns="http://www.w3.org/2000/svg" viewBox="0 0 296 42">
    <g id="logogram" transform="translate(0, 1) rotate(0)"><path d="M12.446 0L22.7801 8.82887C23.3936 9.35302 23.7473 10.1222 23.7473 10.9323V17.5862L13.4131 8.75734C12.7996 8.23319 12.446 7.464 12.446 6.65386V0Z" fill="#7B19D8"/><path d="M12.446 40L22.7801 31.1711C23.3936 30.647 23.7473 29.8778 23.7473 29.0677V22.4138L13.4131 31.2427C12.7996 31.7668 12.446 32.536 12.446 33.3461V40Z" fill="#7B19D8"/><path d="M0.117188 9.31034L10.3108 17.9705C10.805 18.3904 11.4308 18.6207 12.0775 18.6207H20.2982L10.1297 9.96253C9.63514 9.54141 9.00837 9.31034 8.36065 9.31034H0.117188Z" fill="#7B19D8"/><path d="M0.117188 30.6897L10.2481 22.0345C10.7432 21.6115 11.3713 21.3793 12.0206 21.3793H20.3227L10.1291 30.0394C9.63487 30.4593 9.00904 30.6897 8.36236 30.6897H0.117188Z" fill="#7B19D8"/><path d="M37.7884 0L27.4542 8.82887C26.8407 9.35302 26.4871 10.1222 26.4871 10.9323V17.5862L36.8212 8.75734C37.4347 8.23319 37.7884 7.464 37.7884 6.65386V0Z" fill="#7B19D8"/><path d="M37.7884 40L27.4542 31.1711C26.8407 30.647 26.4871 29.8778 26.4871 29.0677V22.4138L36.8212 31.2427C37.4347 31.7668 37.7884 32.536 37.7884 33.3461V40Z" fill="#7B19D8"/><path d="M50.1172 9.31034L39.9236 17.9705C39.4294 18.3904 38.8035 18.6207 38.1569 18.6207H29.9361L40.1047 9.96253C40.5992 9.54141 41.226 9.31034 41.8737 9.31034H50.1172Z" fill="#7B19D8"/><path d="M50.1172 30.6897L39.9863 22.0345C39.4912 21.6115 38.863 21.3793 38.2137 21.3793H29.9117L40.1052 30.0394C40.5995 30.4593 41.2253 30.6897 41.872 30.6897H50.1172Z" fill="#7B19D8"/></g>
    <g id="logotype" transform="translate(57, 1.5)"><path fill="#111111" d="M28.90 10.23L28.90 10.23Q28.90 10.86 28.57 11.54Q28.23 12.23 27.88 12.72L27.88 12.72L16.56 28.19L20.77 28.19Q22.20 28.19 23.02 27.67Q23.84 27.15 24.29 26.39Q24.75 25.63 25.08 24.86Q25.41 24.10 25.86 23.58Q26.30 23.06 27.11 23.06L27.11 23.06Q27.93 23.06 28.54 23.55Q29.16 24.04 29.16 24.91L29.16 24.91Q29.16 25.23 29.04 25.66L29.04 25.66L27.76 29.90Q27.41 31.04 26.91 31.82Q26.41 32.60 25.00 32.60L25.00 32.60Q24.46 32.60 23.93 32.46Q23.40 32.32 22.85 32.21L22.85 32.21Q21.93 32 20.99 32L20.99 32L8.58 32Q7.69 32 7.17 31.50Q6.65 31.01 6.65 30.12L6.65 30.12Q6.65 29.47 6.98 28.80Q7.32 28.12 7.69 27.61L7.69 27.61L19.04 12.16L15.02 12.16Q13.62 12.16 12.88 12.55Q12.14 12.94 11.76 13.53Q11.38 14.12 11.13 14.71Q10.87 15.30 10.46 15.70Q10.05 16.09 9.20 16.09L9.20 16.09Q8.56 16.09 7.87 15.65Q7.18 15.20 7.18 14.48L7.18 14.48Q7.18 14.41 7.21 14.24L7.21 14.24L8.02 10.48Q8.27 9.29 8.85 8.54Q9.42 7.78 10.77 7.78L10.77 7.78Q11.79 7.78 12.78 8.07Q13.78 8.35 14.80 8.35L14.80 8.35L26.99 8.35Q27.88 8.35 28.39 8.83Q28.90 9.32 28.90 10.23ZM47.90 20.70L47.90 20.70Q47.90 22.22 47.01 23.01Q46.11 23.80 44.64 23.80L44.64 23.80L37.75 23.80Q38.15 25.27 39.15 26.27Q40.16 27.27 42.06 27.27L42.06 27.27Q42.81 27.27 43.55 26.95Q44.30 26.63 44.96 26.21Q45.61 25.78 46.11 25.46Q46.61 25.15 46.86 25.15L46.86 25.15Q47.36 25.15 47.58 25.50Q47.80 25.85 47.80 26.29L47.80 26.29Q47.80 27.85 47.08 29.02Q46.35 30.19 45.16 30.96Q43.97 31.73 42.56 32.11Q41.15 32.50 39.79 32.50L39.79 32.50Q37.10 32.50 35.05 31.38Q33.00 30.27 31.85 28.27Q30.69 26.26 30.69 23.54L30.69 23.54Q30.69 20.64 31.81 18.48Q32.93 16.33 35.04 15.14Q37.14 13.95 40.08 13.95L40.08 13.95Q42.11 13.95 43.90 14.72Q45.68 15.49 46.79 17.00Q47.90 18.50 47.90 20.70ZM37.45 21.17L37.45 21.17Q37.45 21.35 37.45 21.54L37.45 21.54L39.22 21.54Q39.87 21.54 40.11 21.24Q40.35 20.94 40.35 20.33L40.35 20.33Q40.35 19.92 40.25 19.25Q40.15 18.58 39.85 18.05Q39.55 17.52 38.98 17.52L38.98 17.52Q38.47 17.52 38.16 17.94Q37.86 18.36 37.70 18.99Q37.55 19.61 37.50 20.21Q37.45 20.81 37.45 21.17ZM57.32 13.95L57.32 13.95Q58.02 13.95 58.39 14.44Q58.76 14.93 58.76 15.58L58.76 15.58L58.76 17.15Q60.11 15.90 61.73 14.93Q63.35 13.95 64.94 13.95L64.94 13.95Q66.60 13.95 67.69 14.77Q68.79 15.59 69.34 16.91Q69.90 18.23 69.90 19.75L69.90 19.75L69.90 26.86Q69.90 27.33 69.94 27.80Q69.98 28.26 70.31 28.67L70.31 28.67Q70.70 29.16 71.00 29.44Q71.30 29.71 71.30 30.44L71.30 30.44Q71.30 31.20 70.84 31.60Q70.38 32 69.64 32L69.64 32L62.50 32Q61.78 32 61.40 31.57Q61.01 31.15 61.01 30.44L61.01 30.44Q61.01 29.80 61.31 29.43Q61.61 29.06 61.91 28.66Q62.21 28.26 62.21 27.52L62.21 27.52L62.21 21.59Q62.21 20.79 61.89 20.02Q61.58 19.25 60.58 19.25L60.58 19.25Q59.99 19.25 59.56 19.48Q59.13 19.71 58.76 20.07L58.76 20.07L58.76 27.06Q58.76 27.52 58.79 27.99Q58.82 28.46 59.13 28.86L59.13 28.86Q59.49 29.28 59.73 29.55Q59.97 29.81 59.97 30.44L59.97 30.44Q59.97 31.15 59.59 31.57Q59.20 32 58.48 32L58.48 32L51.34 32Q50.60 32 50.14 31.60Q49.68 31.20 49.68 30.44L49.68 30.44Q49.68 29.88 49.90 29.56Q50.11 29.25 50.38 28.98Q50.66 28.70 50.87 28.31Q51.08 27.92 51.08 27.23L51.08 27.23L51.08 20.89Q51.08 20.12 50.84 19.73Q50.60 19.34 50.28 19.11Q49.96 18.88 49.72 18.60Q49.48 18.33 49.48 17.78L49.48 17.78Q49.48 17.11 49.92 16.73Q50.37 16.35 50.91 16.12L50.91 16.12L54.60 14.64Q55.25 14.36 55.93 14.16Q56.60 13.95 57.32 13.95ZM80.80 32.50L80.80 32.50Q77.88 32.50 76.20 31.14Q74.51 29.78 74.51 26.70L74.51 26.70L74.51 19.27Q74.51 18.53 74.19 18.17Q73.86 17.82 73.44 17.58Q73.01 17.35 72.68 17.02Q72.36 16.69 72.36 16.00L72.36 16.00Q72.36 15.30 72.86 14.90Q73.35 14.50 74.02 14.50L74.02 14.50L74.79 14.50Q75.28 14.50 75.77 14.00Q76.26 13.49 76.76 12.74Q77.26 11.99 77.82 11.24Q78.38 10.50 79.01 10.00Q79.64 9.49 80.39 9.49L80.39 9.49Q81.25 9.49 81.73 9.97Q82.20 10.45 82.20 11.30L82.20 11.30L82.20 14.50L86.08 14.50Q86.73 14.50 87.19 14.81Q87.66 15.12 87.66 15.83L87.66 15.83Q87.66 16.79 87.05 17.29Q86.44 17.78 85.59 17.94Q84.73 18.11 83.98 18.11L83.98 18.11L82.20 18.11L82.20 24.87Q82.20 25.71 82.53 26.45Q82.85 27.20 83.86 27.20L83.86 27.20Q84.53 27.20 85.00 26.81Q85.47 26.43 85.89 26.05Q86.31 25.68 86.78 25.68L86.78 25.68Q87.23 25.68 87.41 26.10Q87.59 26.53 87.59 26.87L87.59 26.87Q87.59 28.60 86.54 29.86Q85.50 31.13 83.94 31.81Q82.37 32.50 80.80 32.50ZM98.39 21.87L98.39 21.87L98.39 26.86Q98.39 27.85 98.62 28.19Q98.85 28.53 99.84 28.74L99.84 28.74Q100.71 28.91 101.23 29.14Q101.75 29.37 101.75 30.44L101.75 30.44Q101.75 31.21 101.29 31.61Q100.83 32 100.08 32L100.08 32L91.06 32Q90.32 32 89.84 31.61Q89.36 31.21 89.36 30.44L89.36 30.44Q89.36 29.83 89.59 29.52Q89.83 29.21 90.12 28.97Q90.42 28.72 90.65 28.32Q90.89 27.92 90.89 27.10L90.89 27.10L90.89 20.89Q90.89 20.12 90.62 19.74Q90.36 19.35 90.02 19.13Q89.69 18.91 89.42 18.63Q89.16 18.35 89.16 17.78L89.16 17.78Q89.16 17.11 89.59 16.73Q90.03 16.35 90.59 16.12L90.59 16.12L94.87 14.43Q95.28 14.26 95.70 14.11Q96.13 13.95 96.59 13.95L96.59 13.95Q97.19 13.95 97.48 14.41Q97.77 14.86 97.88 15.45Q97.99 16.04 98.05 16.48L98.05 16.48Q98.10 16.79 98.15 17.10Q98.20 17.41 98.23 17.71L98.23 17.71Q98.76 16.14 99.87 15.05Q100.97 13.95 102.92 13.95L102.92 13.95Q104.30 13.95 105.10 14.64Q105.89 15.32 106.23 16.39Q106.57 17.46 106.57 18.65L106.57 18.65Q106.57 19.76 106.28 20.80Q105.99 21.83 105.27 22.50Q104.54 23.16 103.22 23.16L103.22 23.16Q101.79 23.16 101.13 22.72Q100.47 22.28 100.28 21.63Q100.10 20.98 100.09 20.33Q100.08 19.68 99.98 19.23Q99.87 18.79 99.36 18.79L99.36 18.79Q98.90 18.79 98.70 19.43Q98.49 20.07 98.44 20.81Q98.39 21.54 98.39 21.87ZM115.17 34.53L115.17 34.53Q115.82 34.53 116.20 33.95Q116.57 33.37 116.84 32.67L116.84 32.67L109.89 19.23Q109.58 18.64 108.95 18.18Q108.32 17.73 107.79 17.23Q107.26 16.74 107.26 16.04L107.26 16.04Q107.26 15.27 107.74 14.88Q108.21 14.50 108.95 14.50L108.95 14.50L118.09 14.50Q118.83 14.50 119.31 14.88Q119.78 15.25 119.78 16.02L119.78 16.02Q119.78 16.70 119.48 17.03Q119.17 17.35 118.77 17.52Q118.37 17.68 118.06 17.88Q117.75 18.07 117.75 18.48L117.75 18.48Q117.75 18.96 117.90 19.44Q118.06 19.92 118.28 20.36L118.28 20.36L120.60 24.99L122.71 20.62Q123.07 19.87 123.07 19.01L123.07 19.01Q123.07 18.29 122.72 18.02Q122.36 17.75 121.91 17.59Q121.46 17.44 121.11 17.12Q120.76 16.81 120.76 16.00L120.76 16.00Q120.76 15.23 121.25 14.87Q121.73 14.50 122.45 14.50L122.45 14.50L127.44 14.50Q128.18 14.50 128.65 14.88Q129.12 15.27 129.12 16.04L129.12 16.04Q129.12 16.64 128.89 16.92Q128.67 17.20 128.26 17.58L128.26 17.58Q127.53 18.26 127.15 18.80Q126.77 19.34 126.35 20.24L126.35 20.24L121.70 30.05Q121.07 31.38 120.36 32.90Q119.65 34.41 118.72 35.73Q117.80 37.06 116.52 37.90Q115.24 38.75 113.46 38.75L113.46 38.75Q111.82 38.75 110.50 38.12Q109.17 37.49 108.39 36.27Q107.62 35.06 107.62 33.35L107.62 33.35Q107.62 32.02 108.31 31.08Q109.00 30.14 110.44 30.14L110.44 30.14Q111.38 30.14 111.98 30.58Q112.59 31.03 112.99 31.68Q113.39 32.32 113.71 32.98Q114.02 33.64 114.36 34.08Q114.69 34.53 115.17 34.53ZM161.76 25.51L161.76 25.51Q161.76 26.26 161.49 26.96Q161.23 27.66 160.82 28.27L160.82 28.27Q159.81 29.81 158.26 30.79Q156.72 31.76 154.92 32.22Q153.13 32.68 151.35 32.68L151.35 32.68Q147.59 32.68 144.80 31.10Q142.00 29.52 140.46 26.69Q138.92 23.85 138.92 20.12L138.92 20.12Q138.92 17.61 139.81 15.36Q140.70 13.12 142.31 11.37Q143.92 9.63 146.09 8.64Q148.27 7.65 150.85 7.65L150.85 7.65Q151.66 7.65 152.46 7.74Q153.26 7.83 154.03 8.07L154.03 8.07Q154.51 8.23 154.99 8.42Q155.47 8.60 155.98 8.60L155.98 8.60Q156.44 8.60 156.81 8.37Q157.18 8.14 157.54 7.92Q157.89 7.70 158.30 7.70L158.30 7.70Q159.18 7.70 159.45 8.25Q159.72 8.79 159.91 9.48L159.91 9.48L161.45 14.81Q161.52 15.03 161.52 15.30L161.52 15.30Q161.52 16.11 160.87 16.51Q160.22 16.91 159.50 16.91L159.50 16.91Q158.66 16.91 158.14 16.33Q157.62 15.75 157.18 14.88Q156.73 14.02 156.14 13.17Q155.55 12.31 154.60 11.73Q153.66 11.15 152.10 11.15L152.10 11.15Q150.58 11.15 149.64 11.95Q148.70 12.74 148.20 13.98Q147.71 15.22 147.53 16.60Q147.35 17.99 147.35 19.15L147.35 19.15Q147.35 21.23 147.97 23.15Q148.58 25.06 150.00 26.28Q151.42 27.51 153.83 27.51L153.83 27.51Q155.11 27.51 156.15 26.98Q157.19 26.46 158.03 25.77Q158.87 25.08 159.49 24.56Q160.12 24.04 160.54 24.04L160.54 24.04Q161.18 24.04 161.47 24.49Q161.76 24.94 161.76 25.51ZM171.87 6.30L171.87 6.30Q172.57 6.30 172.96 6.78Q173.34 7.25 173.34 7.92L173.34 7.92L173.34 26.86Q173.34 27.35 173.40 27.82Q173.45 28.29 173.82 28.67L173.82 28.67Q174.28 29.13 174.62 29.41Q174.95 29.69 174.95 30.44L174.95 30.44Q174.95 31.21 174.47 31.61Q173.99 32 173.26 32L173.26 32L165.74 32Q165.00 32 164.53 31.61Q164.05 31.21 164.05 30.44L164.05 30.44Q164.05 29.80 164.29 29.50Q164.53 29.20 164.85 28.98Q165.17 28.75 165.41 28.35Q165.65 27.95 165.65 27.08L165.65 27.08L165.65 13.22Q165.65 12.40 165.38 12.02Q165.11 11.65 164.74 11.45Q164.37 11.25 164.10 10.99Q163.82 10.72 163.82 10.13L163.82 10.13Q163.82 9.44 164.27 9.07Q164.71 8.69 165.28 8.47L165.28 8.47L169.09 6.98Q169.77 6.71 170.46 6.50Q171.14 6.30 171.87 6.30ZM186.40 13.95L186.40 13.95Q189.22 13.95 191.35 15.12Q193.48 16.28 194.67 18.38Q195.87 20.48 195.87 23.32L195.87 23.32Q195.87 26.10 194.55 28.16Q193.24 30.22 191.02 31.36Q188.81 32.50 186.11 32.50L186.11 32.50Q183.27 32.50 181.14 31.32Q179.00 30.15 177.81 28.03Q176.63 25.90 176.63 23.06L176.63 23.06Q176.63 20.29 177.96 18.24Q179.29 16.19 181.51 15.07Q183.73 13.95 186.40 13.95ZM187.37 28.72L187.37 28.72Q187.80 28.72 187.98 28.27Q188.16 27.83 188.21 27.29Q188.26 26.75 188.26 26.46L188.26 26.46Q188.26 25.49 188.11 24.52Q187.96 23.56 187.72 22.62L187.72 22.62Q187.63 22.24 187.39 21.45Q187.15 20.65 186.81 19.78Q186.47 18.91 186.06 18.29Q185.65 17.68 185.19 17.68L185.19 17.68Q184.79 17.68 184.61 18.12Q184.44 18.57 184.38 19.11Q184.33 19.64 184.33 19.92L184.33 19.92Q184.33 20.38 184.47 21.40Q184.61 22.41 184.87 23.66Q185.14 24.91 185.51 26.06Q185.89 27.21 186.36 27.97Q186.83 28.72 187.37 28.72ZM205.52 13.95L205.52 13.95Q206.22 13.95 206.59 14.44Q206.96 14.93 206.96 15.58L206.96 15.58L206.96 17.15Q208.31 15.90 209.93 14.93Q211.56 13.95 213.15 13.95L213.15 13.95Q214.80 13.95 215.90 14.77Q216.99 15.59 217.55 16.91Q218.10 18.23 218.10 19.75L218.10 19.75L218.10 26.86Q218.10 27.33 218.14 27.80Q218.19 28.26 218.51 28.67L218.51 28.67Q218.91 29.16 219.20 29.44Q219.50 29.71 219.50 30.44L219.50 30.44Q219.50 31.20 219.04 31.60Q218.58 32 217.85 32L217.85 32L210.70 32Q209.98 32 209.60 31.57Q209.22 31.15 209.22 30.44L209.22 30.44Q209.22 29.80 209.51 29.43Q209.81 29.06 210.11 28.66Q210.41 28.26 210.41 27.52L210.41 27.52L210.41 21.59Q210.41 20.79 210.10 20.02Q209.78 19.25 208.79 19.25L208.79 19.25Q208.19 19.25 207.76 19.48Q207.34 19.71 206.96 20.07L206.96 20.07L206.96 27.06Q206.96 27.52 206.99 27.99Q207.03 28.46 207.34 28.86L207.34 28.86Q207.69 29.28 207.93 29.55Q208.17 29.81 208.17 30.44L208.17 30.44Q208.17 31.15 207.79 31.57Q207.40 32 206.69 32L206.69 32L199.54 32Q198.81 32 198.35 31.60Q197.88 31.20 197.88 30.44L197.88 30.44Q197.88 29.88 198.10 29.56Q198.31 29.25 198.59 28.98Q198.86 28.70 199.07 28.31Q199.29 27.92 199.29 27.23L199.29 27.23L199.29 20.89Q199.29 20.12 199.05 19.73Q198.81 19.34 198.48 19.11Q198.16 18.88 197.92 18.60Q197.68 18.33 197.68 17.78L197.68 17.78Q197.68 17.11 198.12 16.73Q198.57 16.35 199.12 16.12L199.12 16.12L202.81 14.64Q203.46 14.36 204.13 14.16Q204.81 13.95 205.52 13.95ZM238.15 20.70L238.15 20.70Q238.15 22.22 237.25 23.01Q236.35 23.80 234.88 23.80L234.88 23.80L228.00 23.80Q228.39 25.27 229.40 26.27Q230.41 27.27 232.30 27.27L232.30 27.27Q233.06 27.27 233.80 26.95Q234.54 26.63 235.20 26.21Q235.86 25.78 236.35 25.46Q236.85 25.15 237.11 25.15L237.11 25.15Q237.60 25.15 237.82 25.50Q238.05 25.85 238.05 26.29L238.05 26.29Q238.05 27.85 237.32 29.02Q236.59 30.19 235.41 30.96Q234.22 31.73 232.81 32.11Q231.40 32.50 230.03 32.50L230.03 32.50Q227.35 32.50 225.30 31.38Q223.25 30.27 222.09 28.27Q220.94 26.26 220.94 23.54L220.94 23.54Q220.94 20.64 222.06 18.48Q223.18 16.33 225.28 15.14Q227.38 13.95 230.32 13.95L230.32 13.95Q232.35 13.95 234.14 14.72Q235.93 15.49 237.04 17.00Q238.15 18.50 238.15 20.70ZM227.69 21.17L227.69 21.17Q227.69 21.35 227.69 21.54L227.69 21.54L229.47 21.54Q230.12 21.54 230.36 21.24Q230.59 20.94 230.59 20.33L230.59 20.33Q230.59 19.92 230.49 19.25Q230.39 18.58 230.09 18.05Q229.79 17.52 229.23 17.52L229.23 17.52Q228.71 17.52 228.41 17.94Q228.10 18.36 227.95 18.99Q227.79 19.61 227.74 20.21Q227.69 20.81 227.69 21.17Z"/></g>

</svg>
